<svg width="1728" height="526" viewBox="0 0 1728 526" fill="none" xmlns="http://www.w3.org/2000/svg">
<g clip-path="url(#clip0_11_232)">
<rect width="1728" height="526" rx="86" fill="#9175DC"/>
<g opacity="0.2">
<path d="M35 20L37.7009 27.2991L45 30L37.7009 32.7009L35 40L32.2991 32.7009L25 30L32.2991 27.2991L35 20Z" fill="white"/>
<path d="M35 100L37.7009 107.299L45 110L37.7009 112.701L35 120L32.2991 112.701L25 110L32.2991 107.299L35 100Z" fill="white"/>
<path d="M35 180L37.7009 187.299L45 190L37.7009 192.701L35 200L32.2991 192.701L25 190L32.2991 187.299L35 180Z" fill="white"/>
<path d="M35 260L37.7009 267.299L45 270L37.7009 272.701L35 280L32.2991 272.701L25 270L32.2991 267.299L35 260Z" fill="white"/>
<path d="M35 340L37.7009 347.299L45 350L37.7009 352.701L35 360L32.2991 352.701L25 350L32.2991 347.299L35 340Z" fill="white"/>
<path d="M35 420L37.7009 427.299L45 430L37.7009 432.701L35 440L32.2991 432.701L25 430L32.2991 427.299L35 420Z" fill="white"/>
<path d="M35 500L37.7009 507.299L45 510L37.7009 512.701L35 520L32.2991 512.701L25 510L32.2991 507.299L35 500Z" fill="white"/>
<path d="M115 20L117.701 27.2991L125 30L117.701 32.7009L115 40L112.299 32.7009L105 30L112.299 27.2991L115 20Z" fill="white"/>
<path d="M115 100L117.701 107.299L125 110L117.701 112.701L115 120L112.299 112.701L105 110L112.299 107.299L115 100Z" fill="white"/>
<path d="M115 180L117.701 187.299L125 190L117.701 192.701L115 200L112.299 192.701L105 190L112.299 187.299L115 180Z" fill="white"/>
<path d="M115 260L117.701 267.299L125 270L117.701 272.701L115 280L112.299 272.701L105 270L112.299 267.299L115 260Z" fill="white"/>
<path d="M115 340L117.701 347.299L125 350L117.701 352.701L115 360L112.299 352.701L105 350L112.299 347.299L115 340Z" fill="white"/>
<path d="M115 420L117.701 427.299L125 430L117.701 432.701L115 440L112.299 432.701L105 430L112.299 427.299L115 420Z" fill="white"/>
<path d="M115 500L117.701 507.299L125 510L117.701 512.701L115 520L112.299 512.701L105 510L112.299 507.299L115 500Z" fill="white"/>
<path d="M195 20L197.701 27.2991L205 30L197.701 32.7009L195 40L192.299 32.7009L185 30L192.299 27.2991L195 20Z" fill="white"/>
<path d="M195 100L197.701 107.299L205 110L197.701 112.701L195 120L192.299 112.701L185 110L192.299 107.299L195 100Z" fill="white"/>
<path d="M195 180L197.701 187.299L205 190L197.701 192.701L195 200L192.299 192.701L185 190L192.299 187.299L195 180Z" fill="white"/>
<path d="M195 260L197.701 267.299L205 270L197.701 272.701L195 280L192.299 272.701L185 270L192.299 267.299L195 260Z" fill="white"/>
<path d="M195 340L197.701 347.299L205 350L197.701 352.701L195 360L192.299 352.701L185 350L192.299 347.299L195 340Z" fill="white"/>
<path d="M195 420L197.701 427.299L205 430L197.701 432.701L195 440L192.299 432.701L185 430L192.299 427.299L195 420Z" fill="white"/>
<path d="M195 500L197.701 507.299L205 510L197.701 512.701L195 520L192.299 512.701L185 510L192.299 507.299L195 500Z" fill="white"/>
<path d="M275 20L277.701 27.2991L285 30L277.701 32.7009L275 40L272.299 32.7009L265 30L272.299 27.2991L275 20Z" fill="white"/>
<path d="M275 100L277.701 107.299L285 110L277.701 112.701L275 120L272.299 112.701L265 110L272.299 107.299L275 100Z" fill="white"/>
<path d="M275 180L277.701 187.299L285 190L277.701 192.701L275 200L272.299 192.701L265 190L272.299 187.299L275 180Z" fill="white"/>
<path d="M275 260L277.701 267.299L285 270L277.701 272.701L275 280L272.299 272.701L265 270L272.299 267.299L275 260Z" fill="white"/>
<path d="M275 340L277.701 347.299L285 350L277.701 352.701L275 360L272.299 352.701L265 350L272.299 347.299L275 340Z" fill="white"/>
<path d="M275 420L277.701 427.299L285 430L277.701 432.701L275 440L272.299 432.701L265 430L272.299 427.299L275 420Z" fill="white"/>
<path d="M275 500L277.701 507.299L285 510L277.701 512.701L275 520L272.299 512.701L265 510L272.299 507.299L275 500Z" fill="white"/>
<path d="M355 20L357.701 27.2991L365 30L357.701 32.7009L355 40L352.299 32.7009L345 30L352.299 27.2991L355 20Z" fill="white"/>
<path d="M355 100L357.701 107.299L365 110L357.701 112.701L355 120L352.299 112.701L345 110L352.299 107.299L355 100Z" fill="white"/>
<path d="M355 180L357.701 187.299L365 190L357.701 192.701L355 200L352.299 192.701L345 190L352.299 187.299L355 180Z" fill="white"/>
<path d="M355 260L357.701 267.299L365 270L357.701 272.701L355 280L352.299 272.701L345 270L352.299 267.299L355 260Z" fill="white"/>
<path d="M355 340L357.701 347.299L365 350L357.701 352.701L355 360L352.299 352.701L345 350L352.299 347.299L355 340Z" fill="white"/>
<path d="M355 420L357.701 427.299L365 430L357.701 432.701L355 440L352.299 432.701L345 430L352.299 427.299L355 420Z" fill="white"/>
<path d="M355 500L357.701 507.299L365 510L357.701 512.701L355 520L352.299 512.701L345 510L352.299 507.299L355 500Z" fill="white"/>
<path d="M435 20L437.701 27.2991L445 30L437.701 32.7009L435 40L432.299 32.7009L425 30L432.299 27.2991L435 20Z" fill="white"/>
<path d="M435 100L437.701 107.299L445 110L437.701 112.701L435 120L432.299 112.701L425 110L432.299 107.299L435 100Z" fill="white"/>
<path d="M435 180L437.701 187.299L445 190L437.701 192.701L435 200L432.299 192.701L425 190L432.299 187.299L435 180Z" fill="white"/>
<path d="M435 260L437.701 267.299L445 270L437.701 272.701L435 280L432.299 272.701L425 270L432.299 267.299L435 260Z" fill="white"/>
<path d="M435 340L437.701 347.299L445 350L437.701 352.701L435 360L432.299 352.701L425 350L432.299 347.299L435 340Z" fill="white"/>
<path d="M435 420L437.701 427.299L445 430L437.701 432.701L435 440L432.299 432.701L425 430L432.299 427.299L435 420Z" fill="white"/>
<path d="M435 500L437.701 507.299L445 510L437.701 512.701L435 520L432.299 512.701L425 510L432.299 507.299L435 500Z" fill="white"/>
<path d="M515 20L517.701 27.2991L525 30L517.701 32.7009L515 40L512.299 32.7009L505 30L512.299 27.2991L515 20Z" fill="white"/>
<path d="M515 100L517.701 107.299L525 110L517.701 112.701L515 120L512.299 112.701L505 110L512.299 107.299L515 100Z" fill="white"/>
<path d="M515 180L517.701 187.299L525 190L517.701 192.701L515 200L512.299 192.701L505 190L512.299 187.299L515 180Z" fill="white"/>
<path d="M515 260L517.701 267.299L525 270L517.701 272.701L515 280L512.299 272.701L505 270L512.299 267.299L515 260Z" fill="white"/>
<path d="M515 340L517.701 347.299L525 350L517.701 352.701L515 360L512.299 352.701L505 350L512.299 347.299L515 340Z" fill="white"/>
<path d="M515 420L517.701 427.299L525 430L517.701 432.701L515 440L512.299 432.701L505 430L512.299 427.299L515 420Z" fill="white"/>
<path d="M515 500L517.701 507.299L525 510L517.701 512.701L515 520L512.299 512.701L505 510L512.299 507.299L515 500Z" fill="white"/>
<path d="M595 20L597.701 27.2991L605 30L597.701 32.7009L595 40L592.299 32.7009L585 30L592.299 27.2991L595 20Z" fill="white"/>
<path d="M595 100L597.701 107.299L605 110L597.701 112.701L595 120L592.299 112.701L585 110L592.299 107.299L595 100Z" fill="white"/>
<path d="M595 180L597.701 187.299L605 190L597.701 192.701L595 200L592.299 192.701L585 190L592.299 187.299L595 180Z" fill="white"/>
<path d="M595 260L597.701 267.299L605 270L597.701 272.701L595 280L592.299 272.701L585 270L592.299 267.299L595 260Z" fill="white"/>
<path d="M595 340L597.701 347.299L605 350L597.701 352.701L595 360L592.299 352.701L585 350L592.299 347.299L595 340Z" fill="white"/>
<path d="M595 420L597.701 427.299L605 430L597.701 432.701L595 440L592.299 432.701L585 430L592.299 427.299L595 420Z" fill="white"/>
<path d="M595 500L597.701 507.299L605 510L597.701 512.701L595 520L592.299 512.701L585 510L592.299 507.299L595 500Z" fill="white"/>
<path d="M675 20L677.701 27.2991L685 30L677.701 32.7009L675 40L672.299 32.7009L665 30L672.299 27.2991L675 20Z" fill="white"/>
<path d="M675 100L677.701 107.299L685 110L677.701 112.701L675 120L672.299 112.701L665 110L672.299 107.299L675 100Z" fill="white"/>
<path d="M675 180L677.701 187.299L685 190L677.701 192.701L675 200L672.299 192.701L665 190L672.299 187.299L675 180Z" fill="white"/>
<path d="M675 260L677.701 267.299L685 270L677.701 272.701L675 280L672.299 272.701L665 270L672.299 267.299L675 260Z" fill="white"/>
<path d="M675 340L677.701 347.299L685 350L677.701 352.701L675 360L672.299 352.701L665 350L672.299 347.299L675 340Z" fill="white"/>
<path d="M675 420L677.701 427.299L685 430L677.701 432.701L675 440L672.299 432.701L665 430L672.299 427.299L675 420Z" fill="white"/>
<path d="M675 500L677.701 507.299L685 510L677.701 512.701L675 520L672.299 512.701L665 510L672.299 507.299L675 500Z" fill="white"/>
<path d="M755 20L757.701 27.2991L765 30L757.701 32.7009L755 40L752.299 32.7009L745 30L752.299 27.2991L755 20Z" fill="white"/>
<path d="M755 100L757.701 107.299L765 110L757.701 112.701L755 120L752.299 112.701L745 110L752.299 107.299L755 100Z" fill="white"/>
<path d="M755 180L757.701 187.299L765 190L757.701 192.701L755 200L752.299 192.701L745 190L752.299 187.299L755 180Z" fill="white"/>
<path d="M755 260L757.701 267.299L765 270L757.701 272.701L755 280L752.299 272.701L745 270L752.299 267.299L755 260Z" fill="white"/>
<path d="M755 340L757.701 347.299L765 350L757.701 352.701L755 360L752.299 352.701L745 350L752.299 347.299L755 340Z" fill="white"/>
<path d="M755 420L757.701 427.299L765 430L757.701 432.701L755 440L752.299 432.701L745 430L752.299 427.299L755 420Z" fill="white"/>
<path d="M755 500L757.701 507.299L765 510L757.701 512.701L755 520L752.299 512.701L745 510L752.299 507.299L755 500Z" fill="white"/>
</g>
<g opacity="0.2">
<path d="M812.838 20L815.765 27.2991L823.676 30L815.765 32.7009L812.838 40L809.911 32.7009L802 30L809.911 27.2991L812.838 20Z" fill="white"/>
<path d="M812.838 100L815.765 107.299L823.676 110L815.765 112.701L812.838 120L809.911 112.701L802 110L809.911 107.299L812.838 100Z" fill="white"/>
<path d="M812.838 180L815.765 187.299L823.676 190L815.765 192.701L812.838 200L809.911 192.701L802 190L809.911 187.299L812.838 180Z" fill="white"/>
<path d="M812.838 260L815.765 267.299L823.676 270L815.765 272.701L812.838 280L809.911 272.701L802 270L809.911 267.299L812.838 260Z" fill="white"/>
<path d="M812.838 340L815.765 347.299L823.676 350L815.765 352.701L812.838 360L809.911 352.701L802 350L809.911 347.299L812.838 340Z" fill="white"/>
<path d="M812.838 420L815.765 427.299L823.676 430L815.765 432.701L812.838 440L809.911 432.701L802 430L809.911 427.299L812.838 420Z" fill="white"/>
<path d="M812.838 500L815.765 507.299L823.676 510L815.765 512.701L812.838 520L809.911 512.701L802 510L809.911 507.299L812.838 500Z" fill="white"/>
<path d="M899.541 20L902.468 27.2991L910.378 30L902.468 32.7009L899.541 40L896.613 32.7009L888.703 30L896.613 27.2991L899.541 20Z" fill="white"/>
<path d="M899.541 100L902.468 107.299L910.378 110L902.468 112.701L899.541 120L896.613 112.701L888.703 110L896.613 107.299L899.541 100Z" fill="white"/>
<path d="M899.541 180L902.468 187.299L910.378 190L902.468 192.701L899.541 200L896.613 192.701L888.703 190L896.613 187.299L899.541 180Z" fill="white"/>
<path d="M899.541 260L902.468 267.299L910.378 270L902.468 272.701L899.541 280L896.613 272.701L888.703 270L896.613 267.299L899.541 260Z" fill="white"/>
<path d="M899.541 340L902.468 347.299L910.378 350L902.468 352.701L899.541 360L896.613 352.701L888.703 350L896.613 347.299L899.541 340Z" fill="white"/>
<path d="M899.541 420L902.468 427.299L910.378 430L902.468 432.701L899.541 440L896.613 432.701L888.703 430L896.613 427.299L899.541 420Z" fill="white"/>
<path d="M899.541 500L902.468 507.299L910.378 510L902.468 512.701L899.541 520L896.613 512.701L888.703 510L896.613 507.299L899.541 500Z" fill="white"/>
<path d="M986.243 20L989.17 27.2991L997.081 30L989.17 32.7009L986.243 40L983.316 32.7009L975.405 30L983.316 27.2991L986.243 20Z" fill="white"/>
<path d="M986.243 100L989.17 107.299L997.081 110L989.17 112.701L986.243 120L983.316 112.701L975.405 110L983.316 107.299L986.243 100Z" fill="white"/>
<path d="M986.243 180L989.17 187.299L997.081 190L989.17 192.701L986.243 200L983.316 192.701L975.405 190L983.316 187.299L986.243 180Z" fill="white"/>
<path d="M986.243 260L989.17 267.299L997.081 270L989.17 272.701L986.243 280L983.316 272.701L975.405 270L983.316 267.299L986.243 260Z" fill="white"/>
<path d="M986.243 340L989.17 347.299L997.081 350L989.17 352.701L986.243 360L983.316 352.701L975.405 350L983.316 347.299L986.243 340Z" fill="white"/>
<path d="M986.243 420L989.17 427.299L997.081 430L989.17 432.701L986.243 440L983.316 432.701L975.405 430L983.316 427.299L986.243 420Z" fill="white"/>
<path d="M986.243 500L989.17 507.299L997.081 510L989.17 512.701L986.243 520L983.316 512.701L975.405 510L983.316 507.299L986.243 500Z" fill="white"/>
<path d="M1072.95 20L1075.87 27.2991L1083.78 30L1075.87 32.7009L1072.95 40L1070.02 32.7009L1062.11 30L1070.02 27.2991L1072.95 20Z" fill="white"/>
<path d="M1072.95 100L1075.87 107.299L1083.78 110L1075.87 112.701L1072.95 120L1070.02 112.701L1062.11 110L1070.02 107.299L1072.95 100Z" fill="white"/>
<path d="M1072.95 180L1075.87 187.299L1083.78 190L1075.87 192.701L1072.95 200L1070.02 192.701L1062.11 190L1070.02 187.299L1072.95 180Z" fill="white"/>
<path d="M1072.95 260L1075.87 267.299L1083.78 270L1075.87 272.701L1072.95 280L1070.02 272.701L1062.11 270L1070.02 267.299L1072.95 260Z" fill="white"/>
<path d="M1072.95 340L1075.87 347.299L1083.78 350L1075.87 352.701L1072.95 360L1070.02 352.701L1062.11 350L1070.02 347.299L1072.95 340Z" fill="white"/>
<path d="M1072.95 420L1075.87 427.299L1083.78 430L1075.87 432.701L1072.95 440L1070.02 432.701L1062.11 430L1070.02 427.299L1072.95 420Z" fill="white"/>
<path d="M1072.95 500L1075.87 507.299L1083.78 510L1075.87 512.701L1072.95 520L1070.02 512.701L1062.11 510L1070.02 507.299L1072.95 500Z" fill="white"/>
<path d="M1159.65 20L1162.58 27.2991L1170.49 30L1162.58 32.7009L1159.65 40L1156.72 32.7009L1148.81 30L1156.72 27.2991L1159.65 20Z" fill="white"/>
<path d="M1159.65 100L1162.58 107.299L1170.49 110L1162.58 112.701L1159.65 120L1156.72 112.701L1148.81 110L1156.72 107.299L1159.65 100Z" fill="white"/>
<path d="M1159.65 180L1162.58 187.299L1170.49 190L1162.58 192.701L1159.65 200L1156.72 192.701L1148.81 190L1156.72 187.299L1159.65 180Z" fill="white"/>
<path d="M1159.65 260L1162.58 267.299L1170.49 270L1162.58 272.701L1159.65 280L1156.72 272.701L1148.81 270L1156.72 267.299L1159.65 260Z" fill="white"/>
<path d="M1159.65 340L1162.58 347.299L1170.49 350L1162.58 352.701L1159.65 360L1156.72 352.701L1148.81 350L1156.72 347.299L1159.65 340Z" fill="white"/>
<path d="M1159.65 420L1162.58 427.299L1170.49 430L1162.58 432.701L1159.65 440L1156.72 432.701L1148.81 430L1156.72 427.299L1159.65 420Z" fill="white"/>
<path d="M1159.65 500L1162.58 507.299L1170.49 510L1162.58 512.701L1159.65 520L1156.72 512.701L1148.81 510L1156.72 507.299L1159.65 500Z" fill="white"/>
<path d="M1246.35 20L1249.28 27.2991L1257.19 30L1249.28 32.7009L1246.35 40L1243.42 32.7009L1235.51 30L1243.42 27.2991L1246.35 20Z" fill="white"/>
<path d="M1246.35 100L1249.28 107.299L1257.19 110L1249.28 112.701L1246.35 120L1243.42 112.701L1235.51 110L1243.42 107.299L1246.35 100Z" fill="white"/>
<path d="M1246.35 180L1249.28 187.299L1257.19 190L1249.28 192.701L1246.35 200L1243.42 192.701L1235.51 190L1243.42 187.299L1246.35 180Z" fill="white"/>
<path d="M1246.35 260L1249.28 267.299L1257.19 270L1249.28 272.701L1246.35 280L1243.42 272.701L1235.51 270L1243.42 267.299L1246.35 260Z" fill="white"/>
<path d="M1246.35 340L1249.28 347.299L1257.19 350L1249.28 352.701L1246.35 360L1243.42 352.701L1235.51 350L1243.42 347.299L1246.35 340Z" fill="white"/>
<path d="M1246.35 420L1249.28 427.299L1257.19 430L1249.28 432.701L1246.35 440L1243.42 432.701L1235.51 430L1243.42 427.299L1246.35 420Z" fill="white"/>
<path d="M1246.35 500L1249.28 507.299L1257.19 510L1249.28 512.701L1246.35 520L1243.42 512.701L1235.51 510L1243.42 507.299L1246.35 500Z" fill="white"/>
<path d="M1333.05 20L1335.98 27.2991L1343.89 30L1335.98 32.7009L1333.05 40L1330.13 32.7009L1322.22 30L1330.13 27.2991L1333.05 20Z" fill="white"/>
<path d="M1333.05 100L1335.98 107.299L1343.89 110L1335.98 112.701L1333.05 120L1330.13 112.701L1322.22 110L1330.13 107.299L1333.05 100Z" fill="white"/>
<path d="M1333.05 180L1335.98 187.299L1343.89 190L1335.98 192.701L1333.05 200L1330.13 192.701L1322.22 190L1330.13 187.299L1333.05 180Z" fill="white"/>
<path d="M1333.05 260L1335.98 267.299L1343.89 270L1335.98 272.701L1333.05 280L1330.13 272.701L1322.22 270L1330.13 267.299L1333.05 260Z" fill="white"/>
<path d="M1333.05 340L1335.98 347.299L1343.89 350L1335.98 352.701L1333.05 360L1330.13 352.701L1322.22 350L1330.13 347.299L1333.05 340Z" fill="white"/>
<path d="M1333.05 420L1335.98 427.299L1343.89 430L1335.98 432.701L1333.05 440L1330.13 432.701L1322.22 430L1330.13 427.299L1333.05 420Z" fill="white"/>
<path d="M1333.05 500L1335.98 507.299L1343.89 510L1335.98 512.701L1333.05 520L1330.13 512.701L1322.22 510L1330.13 507.299L1333.05 500Z" fill="white"/>
<path d="M1419.76 20L1422.68 27.2991L1430.59 30L1422.68 32.7009L1419.76 40L1416.83 32.7009L1408.92 30L1416.83 27.2991L1419.76 20Z" fill="white"/>
<path d="M1419.76 100L1422.68 107.299L1430.59 110L1422.68 112.701L1419.76 120L1416.83 112.701L1408.92 110L1416.83 107.299L1419.76 100Z" fill="white"/>
<path d="M1419.76 180L1422.68 187.299L1430.59 190L1422.68 192.701L1419.76 200L1416.83 192.701L1408.92 190L1416.83 187.299L1419.76 180Z" fill="white"/>
<path d="M1419.76 260L1422.68 267.299L1430.59 270L1422.68 272.701L1419.76 280L1416.83 272.701L1408.92 270L1416.83 267.299L1419.76 260Z" fill="white"/>
<path d="M1419.76 340L1422.68 347.299L1430.59 350L1422.68 352.701L1419.76 360L1416.83 352.701L1408.92 350L1416.83 347.299L1419.76 340Z" fill="white"/>
<path d="M1419.76 420L1422.68 427.299L1430.59 430L1422.68 432.701L1419.76 440L1416.83 432.701L1408.92 430L1416.83 427.299L1419.76 420Z" fill="white"/>
<path d="M1419.76 500L1422.68 507.299L1430.59 510L1422.68 512.701L1419.76 520L1416.83 512.701L1408.92 510L1416.83 507.299L1419.76 500Z" fill="white"/>
<path d="M1506.46 20L1509.39 27.2991L1517.3 30L1509.39 32.7009L1506.46 40L1503.53 32.7009L1495.62 30L1503.53 27.2991L1506.46 20Z" fill="white"/>
<path d="M1506.46 100L1509.39 107.299L1517.3 110L1509.39 112.701L1506.46 120L1503.53 112.701L1495.62 110L1503.53 107.299L1506.46 100Z" fill="white"/>
<path d="M1506.46 180L1509.39 187.299L1517.3 190L1509.39 192.701L1506.46 200L1503.53 192.701L1495.62 190L1503.53 187.299L1506.46 180Z" fill="white"/>
<path d="M1506.46 260L1509.39 267.299L1517.3 270L1509.39 272.701L1506.46 280L1503.53 272.701L1495.62 270L1503.53 267.299L1506.46 260Z" fill="white"/>
<path d="M1506.46 340L1509.39 347.299L1517.3 350L1509.39 352.701L1506.46 360L1503.53 352.701L1495.62 350L1503.53 347.299L1506.46 340Z" fill="white"/>
<path d="M1506.46 420L1509.39 427.299L1517.3 430L1509.39 432.701L1506.46 440L1503.53 432.701L1495.62 430L1503.53 427.299L1506.46 420Z" fill="white"/>
<path d="M1506.46 500L1509.39 507.299L1517.3 510L1509.39 512.701L1506.46 520L1503.53 512.701L1495.62 510L1503.53 507.299L1506.46 500Z" fill="white"/>
<path d="M1593.16 20L1596.09 27.2991L1604 30L1596.09 32.7009L1593.16 40L1590.23 32.7009L1582.32 30L1590.23 27.2991L1593.16 20Z" fill="white"/>
<path d="M1593.16 100L1596.09 107.299L1604 110L1596.09 112.701L1593.16 120L1590.23 112.701L1582.32 110L1590.23 107.299L1593.16 100Z" fill="white"/>
<path d="M1593.16 180L1596.09 187.299L1604 190L1596.09 192.701L1593.16 200L1590.23 192.701L1582.32 190L1590.23 187.299L1593.16 180Z" fill="white"/>
<path d="M1593.16 260L1596.09 267.299L1604 270L1596.09 272.701L1593.16 280L1590.23 272.701L1582.32 270L1590.23 267.299L1593.16 260Z" fill="white"/>
<path d="M1593.16 340L1596.09 347.299L1604 350L1596.09 352.701L1593.16 360L1590.23 352.701L1582.32 350L1590.23 347.299L1593.16 340Z" fill="white"/>
<path d="M1593.16 420L1596.09 427.299L1604 430L1596.09 432.701L1593.16 440L1590.23 432.701L1582.32 430L1590.23 427.299L1593.16 420Z" fill="white"/>
<path d="M1593.16 500L1596.09 507.299L1604 510L1596.09 512.701L1593.16 520L1590.23 512.701L1582.32 510L1590.23 507.299L1593.16 500Z" fill="white"/>
</g>
<path d="M443.992 258H398.296C395.992 258 394.84 256.848 394.84 254.544V238.032C394.84 233.04 395.48 229.2 396.76 226.512C398.04 223.824 399.8 221.808 402.04 220.464C404.344 219.056 406.968 217.904 409.912 217.008L422.776 212.976C423.8 212.656 424.472 212.272 424.792 211.824C425.176 211.312 425.368 210.544 425.368 209.52C425.368 208.56 425.176 207.92 424.792 207.6C424.408 207.216 423.736 207.024 422.776 207.024H401.944C399.64 207.024 398.488 205.872 398.488 203.568V192.336C398.488 190.032 399.64 188.88 401.944 188.88H430.264C435.768 188.88 439.96 190.256 442.84 193.008C445.72 195.696 447.16 199.632 447.16 204.816V213.84C447.16 218.704 445.816 222.384 443.128 224.88C440.504 227.376 436.856 229.36 432.184 230.832L419.128 234.96C418.168 235.216 417.496 235.504 417.112 235.824C416.792 236.08 416.632 236.752 416.632 237.84V239.856H443.992C446.296 239.856 447.448 241.008 447.448 243.312V254.544C447.448 256.848 446.296 258 443.992 258ZM516.537 239.856C516.537 242.8 516.089 245.488 515.193 247.92C514.361 250.288 512.857 252.336 510.681 254.064C508.569 255.792 505.593 257.104 501.753 258C497.977 258.96 493.145 259.44 487.257 259.44C481.369 259.44 476.505 258.96 472.665 258C468.825 257.104 465.817 255.792 463.641 254.064C461.529 252.336 460.025 250.288 459.129 247.92C458.297 245.488 457.881 242.8 457.881 239.856V207.12C457.881 204.176 458.297 201.52 459.129 199.152C460.025 196.72 461.529 194.64 463.641 192.912C465.817 191.184 468.825 189.84 472.665 188.88C476.505 187.92 481.369 187.44 487.257 187.44C493.145 187.44 497.977 187.92 501.753 188.88C505.593 189.84 508.569 191.184 510.681 192.912C512.857 194.64 514.361 196.72 515.193 199.152C516.089 201.52 516.537 204.176 516.537 207.12V239.856ZM479.577 236.4C479.577 237.68 480.025 238.768 480.921 239.664C481.881 240.496 483.993 240.912 487.257 240.912C490.585 240.912 492.697 240.496 493.593 239.664C494.489 238.768 494.937 237.68 494.937 236.4V210.576C494.937 209.296 494.489 208.24 493.593 207.408C492.697 206.576 490.585 206.16 487.257 206.16C483.993 206.16 481.881 206.576 480.921 207.408C480.025 208.24 479.577 209.296 479.577 210.576V236.4ZM617.679 247.152C617.679 249.392 617.199 251.376 616.239 253.104C615.343 254.832 613.679 256.176 611.247 257.136C608.815 258.096 605.295 258.576 600.687 258.576C596.143 258.576 592.623 258.096 590.127 257.136C587.631 256.176 585.903 254.832 584.943 253.104C583.983 251.376 583.503 249.392 583.503 247.152V228.912C583.503 226.608 583.983 224.624 584.943 222.96C585.903 221.232 587.631 219.888 590.127 218.928C592.623 217.968 596.143 217.488 600.687 217.488C605.295 217.488 608.815 217.968 611.247 218.928C613.679 219.888 615.343 221.232 616.239 222.96C617.199 224.624 617.679 226.608 617.679 228.912V247.152ZM560.271 218.064C560.271 220.304 559.791 222.288 558.831 224.016C557.935 225.744 556.271 227.088 553.839 228.048C551.407 229.008 547.887 229.488 543.279 229.488C538.735 229.488 535.215 229.008 532.719 228.048C530.223 227.088 528.495 225.744 527.535 224.016C526.575 222.288 526.095 220.304 526.095 218.064V199.824C526.095 197.52 526.575 195.536 527.535 193.872C528.495 192.144 530.223 190.8 532.719 189.84C535.215 188.88 538.735 188.4 543.279 188.4C547.887 188.4 551.407 188.88 553.839 189.84C556.271 190.8 557.935 192.144 558.831 193.872C559.791 195.536 560.271 197.52 560.271 199.824V218.064ZM555.855 254.544L571.215 192.336C571.535 191.184 571.951 190.32 572.463 189.744C573.039 189.168 573.935 188.88 575.151 188.88H585.231C587.791 188.88 588.783 190.032 588.207 192.336L572.847 254.544C572.591 255.696 572.175 256.56 571.599 257.136C571.023 257.712 570.127 258 568.911 258H558.831C556.271 258 555.279 256.848 555.855 254.544ZM540.015 215.088C540.015 215.536 540.207 215.952 540.591 216.336C540.975 216.656 541.871 216.816 543.279 216.816C544.623 216.816 545.487 216.656 545.871 216.336C546.255 215.952 546.447 215.536 546.447 215.088V202.8C546.447 202.416 546.255 202.064 545.871 201.744C545.487 201.36 544.623 201.168 543.279 201.168C541.871 201.168 540.975 201.36 540.591 201.744C540.207 202.064 540.015 202.416 540.015 202.8V215.088ZM597.423 244.176C597.423 244.624 597.615 245.04 597.999 245.424C598.383 245.744 599.279 245.904 600.687 245.904C602.031 245.904 602.895 245.744 603.279 245.424C603.663 245.04 603.855 244.624 603.855 244.176V231.888C603.855 231.504 603.663 231.152 603.279 230.832C602.895 230.448 602.031 230.256 600.687 230.256C599.279 230.256 598.383 230.448 597.999 230.832C597.615 231.152 597.423 231.504 597.423 231.888V244.176ZM685.057 258H652.705C650.401 258 649.249 256.848 649.249 254.544V192.336C649.249 190.032 650.401 188.88 652.705 188.88H685.057C693.121 188.88 699.073 190.48 702.913 193.68C706.753 196.88 708.673 201.808 708.673 208.464V238.416C708.673 245.072 706.753 250 702.913 253.2C699.073 256.4 693.121 258 685.057 258ZM671.041 207.216V239.856H682.465C685.473 239.856 686.977 238.288 686.977 235.152V211.824C686.977 208.752 685.473 207.216 682.465 207.216H671.041ZM722.794 258C720.49 258 719.338 256.848 719.338 254.544V243.12C719.338 240.816 720.49 239.664 722.794 239.664H732.298V207.408H722.794C720.49 207.408 719.338 206.256 719.338 203.952V192.336C719.338 190.032 720.49 188.88 722.794 188.88H763.69C765.994 188.88 767.146 190.032 767.146 192.336V203.952C767.146 206.256 765.994 207.408 763.69 207.408H754.378V239.664H763.69C765.994 239.664 767.146 240.816 767.146 243.12V254.544C767.146 256.848 765.994 258 763.69 258H722.794ZM811.063 258H780.727C778.423 258 777.271 256.848 777.271 254.544V243.312C777.271 241.008 778.423 239.856 780.727 239.856H806.551C807.383 239.856 807.991 239.6 808.375 239.088C808.823 238.512 809.047 237.84 809.047 237.072C809.047 235.984 808.823 235.184 808.375 234.672C807.991 234.16 807.383 233.872 806.551 233.808L792.151 231.792C787.671 231.088 784.055 229.616 781.303 227.376C778.615 225.072 777.271 221.232 777.271 215.856V205.776C777.271 200.272 779.031 196.08 782.551 193.2C786.071 190.32 790.935 188.88 797.143 188.88H824.023C826.327 188.88 827.479 190.032 827.479 192.336V203.76C827.479 206.064 826.327 207.216 824.023 207.216H801.655C799.927 207.216 799.063 208.176 799.063 210.096C799.063 211.952 799.927 212.976 801.655 213.168L815.959 215.088C818.967 215.536 821.591 216.336 823.831 217.488C826.071 218.576 827.799 220.208 829.015 222.384C830.295 224.56 830.935 227.44 830.935 231.024V241.104C830.935 246.544 829.175 250.736 825.655 253.68C822.135 256.56 817.271 258 811.063 258ZM887.421 258H863.997C855.933 258 849.981 256.4 846.141 253.2C842.301 250 840.381 245.072 840.381 238.416V208.56C840.381 201.84 842.301 196.88 846.141 193.68C849.981 190.48 855.933 188.88 863.997 188.88H887.421C889.725 188.88 890.877 190.032 890.877 192.336V203.952C890.877 206.256 889.725 207.408 887.421 207.408H868.125C864.221 207.408 862.269 209.008 862.269 212.208V235.056C862.269 238.128 864.221 239.664 868.125 239.664H887.421C889.725 239.664 890.877 240.816 890.877 243.12V254.544C890.877 256.848 889.725 258 887.421 258ZM959.809 239.856C959.809 242.8 959.361 245.488 958.465 247.92C957.633 250.288 956.129 252.336 953.953 254.064C951.777 255.792 948.737 257.104 944.833 258C940.993 258.96 936.065 259.44 930.049 259.44C924.033 259.44 919.073 258.96 915.169 258C911.329 257.104 908.321 255.792 906.145 254.064C903.969 252.336 902.433 250.288 901.537 247.92C900.641 245.488 900.193 242.8 900.193 239.856V207.12C900.193 204.176 900.641 201.52 901.537 199.152C902.433 196.72 903.969 194.64 906.145 192.912C908.321 191.184 911.329 189.84 915.169 188.88C919.073 187.92 924.033 187.44 930.049 187.44C936.065 187.44 940.993 187.92 944.833 188.88C948.737 189.84 951.777 191.184 953.953 192.912C956.129 194.64 957.633 196.72 958.465 199.152C959.361 201.52 959.809 204.176 959.809 207.12V239.856ZM921.985 236.4C921.985 237.68 922.465 238.768 923.425 239.664C924.385 240.496 926.593 240.912 930.049 240.912C933.569 240.912 935.777 240.496 936.673 239.664C937.633 238.768 938.113 237.68 938.113 236.4V210.576C938.113 209.296 937.633 208.24 936.673 207.408C935.777 206.576 933.569 206.16 930.049 206.16C926.593 206.16 924.385 206.576 923.425 207.408C922.465 208.24 921.985 209.296 921.985 210.576V236.4ZM1030.88 239.856C1030.88 242.8 1030.43 245.488 1029.53 247.92C1028.7 250.288 1027.17 252.336 1024.93 254.064C1022.75 255.792 1019.74 257.104 1015.9 258C1012.06 258.96 1007.17 259.44 1001.21 259.44C995.262 259.44 990.366 258.96 986.526 258C982.686 257.104 979.646 255.792 977.406 254.064C975.23 252.336 973.694 250.288 972.798 247.92C971.966 245.488 971.55 242.8 971.55 239.856V192.336C971.55 190.032 972.702 188.88 975.006 188.88H990.078C992.382 188.88 993.534 190.032 993.534 192.336V236.112C993.534 237.392 994.014 238.48 994.974 239.376C995.934 240.208 998.078 240.624 1001.41 240.624C1004.8 240.624 1006.97 240.208 1007.93 239.376C1008.89 238.48 1009.37 237.392 1009.37 236.112V192.336C1009.37 190.032 1010.53 188.88 1012.83 188.88H1027.42C1029.73 188.88 1030.88 190.032 1030.88 192.336V239.856ZM1061.51 258H1047.11C1044.81 258 1043.66 256.848 1043.66 254.544V192.336C1043.66 190.032 1044.81 188.88 1047.11 188.88H1057.1C1059.4 188.88 1061.29 189.744 1062.76 191.472L1081.38 212.784V192.336C1081.38 190.032 1082.54 188.88 1084.84 188.88H1099.24C1101.54 188.88 1102.7 190.032 1102.7 192.336V254.544C1102.7 256.848 1101.54 258 1099.24 258H1084.84C1082.54 258 1081.38 256.848 1081.38 254.544V242.736L1064.97 222.864V254.544C1064.97 256.848 1063.82 258 1061.51 258ZM1148.58 258H1133.02C1130.72 258 1129.57 256.848 1129.57 254.544V207.408H1115.46C1113.15 207.408 1112 206.256 1112 203.952V192.336C1112 190.032 1113.15 188.88 1115.46 188.88H1166.14C1168.45 188.88 1169.6 190.032 1169.6 192.336V203.952C1169.6 206.256 1168.45 207.408 1166.14 207.408H1152.03V254.544C1152.03 256.848 1150.88 258 1148.58 258ZM1258.12 239.856C1258.12 242.8 1257.67 245.488 1256.78 247.92C1255.95 250.288 1254.44 252.336 1252.27 254.064C1250.09 255.792 1247.05 257.104 1243.15 258C1239.31 258.96 1234.38 259.44 1228.36 259.44C1222.35 259.44 1217.39 258.96 1213.48 258C1209.64 257.104 1206.63 255.792 1204.46 254.064C1202.28 252.336 1200.75 250.288 1199.85 247.92C1198.95 245.488 1198.51 242.8 1198.51 239.856V207.12C1198.51 204.176 1198.95 201.52 1199.85 199.152C1200.75 196.72 1202.28 194.64 1204.46 192.912C1206.63 191.184 1209.64 189.84 1213.48 188.88C1217.39 187.92 1222.35 187.44 1228.36 187.44C1234.38 187.44 1239.31 187.92 1243.15 188.88C1247.05 189.84 1250.09 191.184 1252.27 192.912C1254.44 194.64 1255.95 196.72 1256.78 199.152C1257.67 201.52 1258.12 204.176 1258.12 207.12V239.856ZM1220.3 236.4C1220.3 237.68 1220.78 238.768 1221.74 239.664C1222.7 240.496 1224.91 240.912 1228.36 240.912C1231.88 240.912 1234.09 240.496 1234.99 239.664C1235.95 238.768 1236.43 237.68 1236.43 236.4V210.576C1236.43 209.296 1235.95 208.24 1234.99 207.408C1234.09 206.576 1231.88 206.16 1228.36 206.16C1224.91 206.16 1222.7 206.576 1221.74 207.408C1220.78 208.24 1220.3 209.296 1220.3 210.576V236.4ZM1288.2 258H1273.8C1271.49 258 1270.34 256.848 1270.34 254.544V192.336C1270.34 190.032 1271.49 188.88 1273.8 188.88H1283.78C1286.09 188.88 1287.97 189.744 1289.45 191.472L1308.07 212.784V192.336C1308.07 190.032 1309.22 188.88 1311.53 188.88H1325.93C1328.23 188.88 1329.38 190.032 1329.38 192.336V254.544C1329.38 256.848 1328.23 258 1325.93 258H1311.53C1309.22 258 1308.07 256.848 1308.07 254.544V242.736L1291.65 222.864V254.544C1291.65 256.848 1290.5 258 1288.2 258ZM454.712 385H440.408C438.104 385 436.952 383.848 436.952 381.544V319.336C436.952 317.032 438.104 315.88 440.408 315.88H455.864C457.784 315.88 459.256 316.84 460.28 318.76L468.92 334.408C469.24 334.984 469.496 335.4 469.688 335.656C469.944 335.912 470.264 336.04 470.648 336.04H471.512C471.896 336.04 472.184 335.912 472.376 335.656C472.632 335.4 472.92 334.984 473.24 334.408L481.784 318.76C482.808 316.84 484.28 315.88 486.2 315.88H501.752C504.056 315.88 505.208 317.032 505.208 319.336V381.544C505.208 383.848 504.056 385 501.752 385H486.968C484.664 385 483.512 383.848 483.512 381.544V347.752L477.848 358.216C476.76 360.264 475.064 361.288 472.76 361.288H468.92C466.616 361.288 464.92 360.264 463.832 358.216L458.168 347.752V381.544C458.168 383.848 457.016 385 454.712 385ZM566.421 385H521.877C519.573 385 518.421 383.848 518.421 381.544V319.336C518.421 317.032 519.573 315.88 521.877 315.88H566.421C568.725 315.88 569.877 317.032 569.877 319.336V330.568C569.877 332.872 568.725 334.024 566.421 334.024H539.925V341.416H558.645C560.949 341.416 562.101 342.568 562.101 344.872V355.144C562.101 357.448 560.949 358.6 558.645 358.6H539.925V366.856H566.421C568.725 366.856 569.877 368.008 569.877 370.312V381.544C569.877 383.848 568.725 385 566.421 385ZM599.089 385H584.689C582.385 385 581.233 383.848 581.233 381.544V319.336C581.233 317.032 582.385 315.88 584.689 315.88H594.673C596.977 315.88 598.865 316.744 600.337 318.472L618.961 339.784V319.336C618.961 317.032 620.113 315.88 622.417 315.88H636.817C639.121 315.88 640.273 317.032 640.273 319.336V381.544C640.273 383.848 639.121 385 636.817 385H622.417C620.113 385 618.961 383.848 618.961 381.544V369.736L602.545 349.864V381.544C602.545 383.848 601.393 385 599.089 385ZM670.891 351.88H657.067C655.403 351.88 654.315 351.656 653.803 351.208C653.355 350.696 653.099 349.608 653.035 347.944L652.267 319.816C652.203 318.152 652.395 317.096 652.843 316.648C653.355 316.136 654.443 315.88 656.107 315.88H671.947C673.611 315.88 674.667 316.136 675.115 316.648C675.563 317.096 675.755 318.152 675.691 319.816L674.923 347.944C674.859 349.608 674.571 350.696 674.059 351.208C673.611 351.656 672.555 351.88 670.891 351.88ZM719.797 385H689.461C687.157 385 686.005 383.848 686.005 381.544V370.312C686.005 368.008 687.157 366.856 689.461 366.856H715.285C716.117 366.856 716.725 366.6 717.109 366.088C717.557 365.512 717.781 364.84 717.781 364.072C717.781 362.984 717.557 362.184 717.109 361.672C716.725 361.16 716.117 360.872 715.285 360.808L700.885 358.792C696.405 358.088 692.789 356.616 690.037 354.376C687.349 352.072 686.005 348.232 686.005 342.856V332.776C686.005 327.272 687.765 323.08 691.285 320.2C694.805 317.32 699.669 315.88 705.877 315.88H732.757C735.061 315.88 736.213 317.032 736.213 319.336V330.76C736.213 333.064 735.061 334.216 732.757 334.216H710.389C708.661 334.216 707.797 335.176 707.797 337.096C707.797 338.952 708.661 339.976 710.389 340.168L724.693 342.088C727.701 342.536 730.325 343.336 732.565 344.488C734.805 345.576 736.533 347.208 737.749 349.384C739.029 351.56 739.669 354.44 739.669 358.024V368.104C739.669 373.544 737.909 377.736 734.389 380.68C730.869 383.56 726.005 385 719.797 385ZM817.717 385H794.293C786.229 385 780.277 383.4 776.437 380.2C772.597 377 770.677 372.072 770.677 365.416V335.56C770.677 328.84 772.597 323.88 776.437 320.68C780.277 317.48 786.229 315.88 794.293 315.88H817.717C820.021 315.88 821.173 317.032 821.173 319.336V330.952C821.173 333.256 820.021 334.408 817.717 334.408H798.421C794.517 334.408 792.565 336.008 792.565 339.208V362.056C792.565 365.128 794.517 366.664 798.421 366.664H817.717C820.021 366.664 821.173 367.816 821.173 370.12V381.544C821.173 383.848 820.021 385 817.717 385ZM884.335 385H835.471C833.167 385 832.015 383.848 832.015 381.544V319.336C832.015 317.032 833.167 315.88 835.471 315.88H850.351C852.655 315.88 853.807 317.032 853.807 319.336V366.856H866.959V351.304C866.959 349 868.111 347.848 870.415 347.848H884.335C886.639 347.848 887.791 349 887.791 351.304V381.544C887.791 383.848 886.639 385 884.335 385ZM957.325 366.856C957.325 369.8 956.877 372.488 955.981 374.92C955.149 377.288 953.645 379.336 951.469 381.064C949.293 382.792 946.253 384.104 942.349 385C938.509 385.96 933.581 386.44 927.565 386.44C921.549 386.44 916.589 385.96 912.685 385C908.845 384.104 905.837 382.792 903.661 381.064C901.485 379.336 899.949 377.288 899.053 374.92C898.157 372.488 897.709 369.8 897.709 366.856V334.12C897.709 331.176 898.157 328.52 899.053 326.152C899.949 323.72 901.485 321.64 903.661 319.912C905.837 318.184 908.845 316.84 912.685 315.88C916.589 314.92 921.549 314.44 927.565 314.44C933.581 314.44 938.509 314.92 942.349 315.88C946.253 316.84 949.293 318.184 951.469 319.912C953.645 321.64 955.149 323.72 955.981 326.152C956.877 328.52 957.325 331.176 957.325 334.12V366.856ZM919.501 363.4C919.501 364.68 919.981 365.768 920.941 366.664C921.901 367.496 924.109 367.912 927.565 367.912C931.085 367.912 933.293 367.496 934.189 366.664C935.149 365.768 935.629 364.68 935.629 363.4V337.576C935.629 336.296 935.149 335.24 934.189 334.408C933.293 333.576 931.085 333.16 927.565 333.16C924.109 333.16 921.901 333.576 920.941 334.408C919.981 335.24 919.501 336.296 919.501 337.576V363.4ZM1001.72 385H986.165C983.861 385 982.709 383.848 982.709 381.544V334.408H968.597C966.293 334.408 965.141 333.256 965.141 330.952V319.336C965.141 317.032 966.293 315.88 968.597 315.88H1019.29C1021.59 315.88 1022.74 317.032 1022.74 319.336V330.952C1022.74 333.256 1021.59 334.408 1019.29 334.408H1005.17V381.544C1005.17 383.848 1004.02 385 1001.72 385ZM1050.41 385H1035.53C1033.23 385 1032.08 383.848 1032.08 381.544V319.336C1032.08 317.032 1033.23 315.88 1035.53 315.88H1050.41C1052.72 315.88 1053.87 317.032 1053.87 319.336V340.168H1069.9V319.336C1069.9 317.032 1071.05 315.88 1073.36 315.88H1088.24C1090.54 315.88 1091.69 317.032 1091.69 319.336V381.544C1091.69 383.848 1090.54 385 1088.24 385H1073.36C1071.05 385 1069.9 383.848 1069.9 381.544V360.232H1053.87V381.544C1053.87 383.848 1052.72 385 1050.41 385ZM1106.84 385C1104.54 385 1103.38 383.848 1103.38 381.544V370.12C1103.38 367.816 1104.54 366.664 1106.84 366.664H1116.34V334.408H1106.84C1104.54 334.408 1103.38 333.256 1103.38 330.952V319.336C1103.38 317.032 1104.54 315.88 1106.84 315.88H1147.74C1150.04 315.88 1151.19 317.032 1151.19 319.336V330.952C1151.19 333.256 1150.04 334.408 1147.74 334.408H1138.42V366.664H1147.74C1150.04 366.664 1151.19 367.816 1151.19 370.12V381.544C1151.19 383.848 1150.04 385 1147.74 385H1106.84ZM1180.9 385H1166.5C1164.2 385 1163.05 383.848 1163.05 381.544V319.336C1163.05 317.032 1164.2 315.88 1166.5 315.88H1176.49C1178.79 315.88 1180.68 316.744 1182.15 318.472L1200.77 339.784V319.336C1200.77 317.032 1201.93 315.88 1204.23 315.88H1218.63C1220.93 315.88 1222.09 317.032 1222.09 319.336V381.544C1222.09 383.848 1220.93 385 1218.63 385H1204.23C1201.93 385 1200.77 383.848 1200.77 381.544V369.736L1184.36 349.864V381.544C1184.36 383.848 1183.21 385 1180.9 385ZM1288.13 385H1257.89C1249.82 385 1243.87 383.4 1240.03 380.2C1236.19 377 1234.27 372.072 1234.27 365.416V335.464C1234.27 328.808 1236.19 323.88 1240.03 320.68C1243.87 317.48 1249.82 315.88 1257.89 315.88H1281.89C1284.19 315.88 1285.34 317.032 1285.34 319.336V330.952C1285.34 333.256 1284.19 334.408 1281.89 334.408H1261.92C1258.02 334.408 1256.06 336.008 1256.06 339.208V362.152C1256.06 365.288 1257.54 366.856 1260.48 366.856H1269.79V351.88C1269.79 349.576 1270.94 348.424 1273.25 348.424H1288.13C1290.43 348.424 1291.58 349.576 1291.58 351.88V381.544C1291.58 383.848 1290.43 385 1288.13 385Z" fill="white"/>
</g>
<defs>
<clipPath id="clip0_11_232">
<rect width="1728" height="526" rx="86" fill="white"/>
</clipPath>
</defs>
</svg>
